<?xml version="1.0" encoding="utf-8"?>
<!-- Generator: Adobe Illustrator 19.2.1, SVG Export Plug-In . SVG Version: 6.00 Build 0)  -->
<svg version="1.1" id="Calque_1" xmlns="http://www.w3.org/2000/svg" xmlns:xlink="http://www.w3.org/1999/xlink" x="0px" y="0px"
	 viewBox="0 0 198.4 198.4" style="enable-background:new 0 0 198.4 198.4;" xml:space="preserve">
<style type="text/css">
	.st0{fill:#089D58;}
	.st1{fill:#138A51;}
	.st2{fill:#FFFFFF;}
</style>
<g>
	<path class="st0" d="M93.1,132V96.2L66,49h14.4l24.1,24.1L118.4,49h14.4l45,45c0.1-1.6,0.2-3,0.3-4.6c0.3-5.8-0.1-11.6-1.1-17.3
		c-2.8-15.2-9.5-28.5-20-39.9c-4.4-4.8-9.4-9-14.9-12.5c-10.2-6.6-21.4-10.6-33.5-12c-1.5-0.2-7.7-0.6-9.3-0.5c-3.5,0,3.5,0,0,0
		c-2.8,0-5.9,0.2-6.1,0.2c-2.7,0.2-5.4,0.5-8,1C65.7,12.1,49.8,21.6,37.4,37C27.3,49.6,21.7,64.1,20.5,80.3
		c-0.6,7.8,0,15.6,1.7,23.3c1.3,5.7,3.2,11.2,5.7,16.5c0.2,0.4,0.4,0.9,0.7,1.3c4.2,8.3,9.6,15.7,16.4,22.1c3.6,3.4,7.4,6.4,11.5,9
		c12.7,8,26.5,12.3,41.5,12.4c0.9,0,1.2,0.2,1.2,1.2c0,8,0,16.1,0,24.1c0,0.3,0,0.6,0,1c0.3-0.1,0.4-0.2,0.6-0.2
		c11.7-5.5,22.3-11.9,32.4-19.8L93.1,132z"/>
	<path class="st1" d="M148.2,156.7c1-1,1.9-2.1,2.9-3.1c1.5-1.6,2.8-3.4,4.2-5.1c1.6-1.9,3.1-4,4.5-6.1c3.2-4.6,6.1-9.4,8.5-14.5
		c1.2-2.6,2.4-5.2,3.4-7.8l0.1-0.1c2.8-7.2,4.6-14.7,5.5-22.4c0.1-0.9,0.5-3.6,0.5-3.6l-45-45h-14.4l-13.9,24.1L80.4,49H66
		l27.1,47.1V132l39.1,39.2c0,0,6.2-4.9,9-7.5C143.6,161.5,146,159.1,148.2,156.7z"/>
</g>
<path class="st2" d="M93.1,96.2L66,49h14.4l19,33.1l19-33.1h14.4l-27.2,47.1V132H93.1V96.2z"/>
</svg>
