<?xml version="1.0" encoding="UTF-8" standalone="no"?>
<!-- Generator: Adobe Illustrator 19.2.1, SVG Export Plug-In . SVG Version: 6.00 Build 0)  -->

<svg
   xmlns:dc="http://purl.org/dc/elements/1.1/"
   xmlns:cc="http://creativecommons.org/ns#"
   xmlns:rdf="http://www.w3.org/1999/02/22-rdf-syntax-ns#"
   xmlns:svg="http://www.w3.org/2000/svg"
   xmlns="http://www.w3.org/2000/svg"
   xmlns:sodipodi="http://sodipodi.sourceforge.net/DTD/sodipodi-0.dtd"
   xmlns:inkscape="http://www.inkscape.org/namespaces/inkscape"
   version="1.1"
   id="Calque_1"
   x="0px"
   y="0px"
   viewBox="0 0 198.4 198.4"
   xml:space="preserve"
   inkscape:version="0.91+devel+osxmenu r12922"
   sodipodi:docname="yakyak-osx-read.svg"
   inkscape:export-filename="/Users/stanko/Projects/yakyak/src/icons/icon-unread.png"
   inkscape:export-xdpi="7.952764"
   inkscape:export-ydpi="7.952764"
   style="enable-background:new 0 0 198.4 198.4;"><metadata
     id="metadata25"><rdf:RDF><cc:Work
         rdf:about=""><dc:format>image/svg+xml</dc:format><dc:type
           rdf:resource="http://purl.org/dc/dcmitype/StillImage" /><dc:title></dc:title></cc:Work></rdf:RDF></metadata><defs
     id="defs23" /><sodipodi:namedview
     pagecolor="#ffffff"
     bordercolor="#666666"
     borderopacity="1"
     objecttolerance="10"
     gridtolerance="10"
     guidetolerance="10"
     inkscape:pageopacity="0"
     inkscape:pageshadow="2"
     inkscape:window-width="1676"
     inkscape:window-height="1005"
     id="namedview21"
     showgrid="false"
     showguides="false"
     inkscape:zoom="3.3644598"
     inkscape:cx="63.508616"
     inkscape:cy="92.239194"
     inkscape:window-x="0"
     inkscape:window-y="23"
     inkscape:window-maximized="0"
     inkscape:current-layer="Calque_1" /><style
     type="text/css"
     id="style11">
	.st0{fill:#089D58;}
	.st1{fill:#138A51;}
	.st2{fill:#FFFFFF;}
</style><path
     style="fill:none;stroke:#000000;stroke-width:9.1;stroke-miterlimit:4;stroke-dasharray:none;stroke-linejoin:round"
     d="m 99.300781,7.1992188 c -2.8,0 -5.901562,0.2011718 -6.101562,0.2011718 -2.7,0.2 -5.4,0.5 -8,1 C 65.699219,12.100391 49.800391,21.6 37.400391,37 27.300391,49.6 21.7,64.100781 20.5,80.300781 c -0.6,7.8 -7.81e-4,15.598828 1.699219,23.298829 1.3,5.7 3.201172,11.2 5.701172,16.5 0.2,0.4 0.399218,0.90078 0.699218,1.30078 C 32.799609,129.70039 38.2,137.1 45,143.5 c 3.6,3.4 7.4,6.4 11.5,9 12.7,8 26.5,12.30039 41.5,12.40039 0.9,0 1.199219,0.19922 1.199219,1.19922 l 0,24.09961 0,1 c 0.3,-0.1 0.401562,-0.19922 0.601562,-0.19922 11.699999,-5.5 22.298439,-11.90078 32.398439,-19.80078 0,0 6.2,-4.9 9,-7.5 2.4,-2.2 4.8,-4.6 7,-7 1,-1 1.90039,-2.09961 2.90039,-3.09961 1.5,-1.6 2.80117,-3.39961 4.20117,-5.09961 1.6,-1.9 3.1,-3.99961 4.5,-6.09961 3.2,-4.6 6.1,-9.4 8.5,-14.5 1.2,-2.6 2.39844,-5.20078 3.39844,-7.80078 L 171.80078,120 c 2.8,-7.2 4.6,-14.70039 5.5,-22.400391 0.1,-0.9 0.5,-3.599609 0.5,-3.599609 0.1,-1.6 0.19883,-2.999609 0.29883,-4.599609 0.3,-5.8 -0.0996,-11.600782 -1.09961,-17.300782 -2.8,-15.2 -9.5,-28.50039 -20,-39.90039 -4.4,-4.8 -9.40039,-9 -14.90039,-12.5 -10.2,-6.6 -21.4,-10.6000003 -33.5,-12.0000002 -1.5,-0.2000001 -7.69883,-0.6000001 -9.298829,-0.5 z"
     id="path15"
     inkscape:connector-curvature="0"
     sodipodi:nodetypes="cccccccccccscccccccccccccccccccc" /><path
     class="st2"
     d="M93.1,96.2L66,49h14.4l19,33.1l19-33.1h14.4l-27.2,47.1V132H93.1V96.2z"
     id="path19"
     style="fill:#000000" /></svg>